<svg width="32" height="32" viewBox="0 0 32 32" fill="none" xmlns="http://www.w3.org/2000/svg">
  <!-- Background -->
  <rect width="32" height="32" rx="6" fill="#3B82F6"/>
  
  <!-- BMC Grid Structure -->
  <!-- Top row - 5 blocks -->
  <rect x="2" y="4" width="4" height="8" rx="1" fill="white" fill-opacity="0.9"/>
  <rect x="7" y="4" width="4" height="3.5" rx="0.5" fill="white" fill-opacity="0.9"/>
  <rect x="7" y="8.5" width="4" height="3.5" rx="0.5" fill="white" fill-opacity="0.9"/>
  <rect x="12" y="4" width="6" height="8" rx="1" fill="#FEF3C7" stroke="#F59E0B" stroke-width="0.5"/>
  <rect x="19" y="4" width="4" height="3.5" rx="0.5" fill="white" fill-opacity="0.9"/>
  <rect x="19" y="8.5" width="4" height="3.5" rx="0.5" fill="white" fill-opacity="0.9"/>
  <rect x="24" y="4" width="6" height="8" rx="1" fill="white" fill-opacity="0.9"/>
  
  <!-- Bottom row - 2 blocks -->
  <rect x="2" y="14" width="13" height="6" rx="1" fill="#FEE2E2" fill-opacity="0.9"/>
  <rect x="17" y="14" width="13" height="6" rx="1" fill="#DCFCE7" fill-opacity="0.9"/>
  
  <!-- Grid lines for structure -->
  <line x1="6.5" y1="4" x2="6.5" y2="12" stroke="#E5E7EB" stroke-width="0.5" opacity="0.6"/>
  <line x1="11.5" y1="4" x2="11.5" y2="12" stroke="#E5E7EB" stroke-width="0.5" opacity="0.6"/>
  <line x1="18.5" y1="4" x2="18.5" y2="12" stroke="#E5E7EB" stroke-width="0.5" opacity="0.6"/>
  <line x1="23.5" y1="4" x2="23.5" y2="12" stroke="#E5E7EB" stroke-width="0.5" opacity="0.6"/>
  <line x1="2" y1="12.5" x2="30" y2="12.5" stroke="#E5E7EB" stroke-width="0.5" opacity="0.6"/>
  <line x1="16.5" y1="14" x2="16.5" y2="20" stroke="#E5E7EB" stroke-width="0.5" opacity="0.6"/>
  
  <!-- Central highlight dot -->
  <circle cx="15" cy="8" r="1" fill="#F59E0B"/>
  
  <!-- Small building icon in corner -->
  <g transform="translate(24, 22) scale(0.4)">
    <rect x="0" y="4" width="3" height="8" fill="white" fill-opacity="0.8"/>
    <rect x="4" y="2" width="3" height="10" fill="white" fill-opacity="0.8"/>
    <rect x="8" y="6" width="3" height="6" fill="white" fill-opacity="0.8"/>
    <rect x="1" y="6" width="1" height="1" fill="#3B82F6"/>
    <rect x="1" y="8" width="1" height="1" fill="#3B82F6"/>
    <rect x="5" y="4" width="1" height="1" fill="#3B82F6"/>
    <rect x="5" y="6" width="1" height="1" fill="#3B82F6"/>
    <rect x="9" y="8" width="1" height="1" fill="#3B82F6"/>
  </g>
</svg>